<svg width="28" height="30" viewBox="0 0 28 30" fill="none" xmlns="http://www.w3.org/2000/svg">
<path fill-rule="evenodd" clip-rule="evenodd" d="M27.5 12.2255V23.9503C27.5 27.2914 24.8137 30 21.5 30H6.5C3.18629 30 0.5 27.2914 0.5 23.9503V12.2255C0.5 10.4091 1.30947 8.68871 2.70479 7.53981L10.2048 1.36401C12.4135 -0.454664 15.5865 -0.454674 17.7952 1.36401L25.2952 7.53981C26.6905 8.68871 27.5 10.4091 27.5 12.2255ZM6.5 14C6.5 12.8954 7.3954 12 8.5 12H19.5C20.6046 12 21.5 12.8954 21.5 14V22C21.5 23.1046 20.6046 24 19.5 24H8.5C7.3954 24 6.5 23.1046 6.5 22V14ZM9.9938 15.9968C10.2717 15.441 10.9475 15.2158 11.5032 15.4936L13.1615 16.3228C13.6894 16.5868 14.3107 16.5868 14.8386 16.3228L16.4969 15.4936C17.0527 15.2158 17.7284 15.441 18.0063 15.9968C18.2842 16.5525 18.0589 17.2282 17.5032 17.5061L15.8448 18.3353C14.6835 18.9159 13.3166 18.9159 12.1553 18.3353L10.4969 17.5061C9.9412 17.2282 9.716 16.5525 9.9938 15.9968Z" fill="#F01543"/>
</svg>
